<svg fill="none" height="54" viewBox="0 0 97 54" width="97" xmlns="http://www.w3.org/2000/svg" xmlns:xlink="http://www.w3.org/1999/xlink"><filter id="a" color-interpolation-filters="sRGB" filterUnits="userSpaceOnUse" height="53.5245" width="95.4195" x=".790221" y=".237731"><feFlood flood-opacity="0" result="BackgroundImageFix"/><feBlend in="SourceGraphic" in2="BackgroundImageFix" mode="normal" result="shape"/><feGaussianBlur result="effect1_foregroundBlur_359_39713" stdDeviation="3.38113"/></filter><g fill="#fff"><g filter="url(#a)"><path d="m61.4166 34.6098 7.916-13.5374 5.4302-.2295c-1.8356 2.5494-3.5947 5.1498-5.2773 7.8012l.0765.0765c.6629-.8413 1.4022-1.7463 2.218-2.7151s1.6699-1.8611 2.5622-2.6769c.9177-.8413 1.8483-1.5424 2.7916-2.1033.9687-.5608 1.9248-.8413 2.8681-.8413.9687 0 1.7718.255 2.4092.7649.6628.4843.9942 1.2364.9942 2.2562 0 .8413-.2677 1.7081-.803 2.6004-.5099.8923-1.0835 1.7718-1.7209 2.6386-.6373.8413-1.2237 1.6572-1.7591 2.4475-.5099.7648-.7648 1.4404-.7648 2.0268 0 .2549.0637.4844.1912.6883.153.1785.3824.2677.6883.2677.5609 0 1.1983-.2549 1.9121-.7648.7138-.5354 1.4532-1.1855 2.218-1.9503.5864-.5864 1.1727-1.211 1.7591-1.8739.5863-.6883 1.1345-1.3384 1.6444-1.9503.5098-.6373.9687-1.2109 1.3766-1.7208.4079-.5354.7266-.956.9561-1.262l.3441.1912c-.8668 1.1473-1.7973 2.3327-2.7916 3.5565-.9687 1.2237-1.9503 2.3454-2.9445 3.3652-1.0453 1.0708-2.0651 1.9121-3.0593 2.5239-.9688.5864-1.9631.8796-2.9829.8796-1.1472 0-2.014-.3315-2.6004-.9943-.5608-.6883-.8413-1.5679-.8413-2.6387 0-.9177.2422-1.7845.7266-2.6004.5099-.8413 1.0708-1.6188 1.6826-2.3327.6119-.7393 1.16-1.4149 1.6444-2.0268.5099-.6118.7648-1.1854.7648-1.7208 0-.7138-.3441-1.0708-1.0325-1.0708-.4589 0-1.0197.2422-1.6826.7266-.6628.4589-1.3767 1.0708-2.1415 1.8356s-1.5424 1.6189-2.3327 2.5622c-.7903.9432-1.5424 1.8865-2.2563 2.8298-.6883.9433-1.3002 1.8356-1.8355 2.6769-.5099.8413-.8923 1.5296-1.1473 2.065z"/><path d="m43.2859 31.0533c0-1.3257.3314-2.6259.9943-3.9006.6883-1.2747 1.5679-2.4092 2.6386-3.4034 1.0963-1.0198 2.32-1.8356 3.6712-2.4475 1.3512-.6118 2.7151-.9178 4.0918-.9178.8158 0 1.5297.153 2.1415.4589.6374.2805 1.1727.8796 1.6061 1.7974l.9178-1.7974 5.3156-.2294c-1.3257 2.269-2.6514 4.4997-3.9771 6.6922-1.3002 2.167-2.6004 4.3595-3.9006 6.5775 1.1727-.4079 2.2944-.9433 3.3652-1.6061 1.0962-.6884 2.1288-1.4405 3.0975-2.2563.9688-.8413 1.8866-1.7336 2.7534-2.6769.8923-.9432 1.7209-1.8865 2.4857-2.8298l.2677.2677c-.7649.9688-1.6189 1.9503-2.5622 2.9445-.9433.9943-1.9375 1.9249-2.9828 2.7917s-2.1415 1.6443-3.2888 2.3327c-1.1217.6883-2.2817 1.2109-3.4799 1.5679-.9688 1.963-2.116 3.7221-3.4417 5.2772-1.3257 1.5552-2.7661 2.8681-4.3213 3.9389-1.5296 1.0962-3.1357 1.9248-4.8184 2.4857-1.6826.5863-3.3779.8795-5.086.8795-1.0453 0-2.0778-.102-3.0976-.3059-1.0197-.204-1.9248-.5354-2.7151-.9943-.8158-.4334-1.4659-1.007-1.9503-1.7208-.5099-.6884-.7648-1.5424-.7648-2.5622 0-.6628.1402-1.2875.4206-1.8738.255-.5609.6629-1.058 1.2237-1.4914.5609-.4334 1.2875-.7776 2.1798-1.0325.8923-.2295 1.963-.3442 3.2123-.3442h2.4474v.4589h-.8413c-1.2237 0-2.2053.3569-2.9446 1.0707-.7393.7139-1.109 1.8229-1.109 3.327 0 .6884.102 1.3385.3059 1.9503.204.6119.5099 1.1345.9178 1.5679.3824.4589.8541.8158 1.415 1.0708.5353.2804 1.1472.4206 1.8355.4206 1.5552 0 3.0466-.5736 4.4743-1.7208 1.4021-1.1473 2.7278-2.6387 3.977-4.4743l5.8509-8.5277-.0764-.0765c-.8923 1.0452-1.9248 1.861-3.0976 2.4474-1.1472.5864-2.3327.8796-3.5564.8796-1.1472 0-2.0395-.3697-2.6769-1.109-.6118-.7649-.9178-1.7336-.9178-2.9064zm4.9714.5737c0 .4843.0765.9305.2294 1.3384.1785.3824.5609.5736 1.1473.5736.5353 0 1.0962-.1784 1.6826-.5354.5863-.3824 1.16-.8668 1.7208-1.4531.5609-.6119 1.0963-1.3002 1.6062-2.0651.5098-.7648.9432-1.5424 1.3002-2.3327.3824-.8158.6883-1.5934.9178-2.3327.2294-.7648.3441-1.4404.3441-2.0268 0-.6118-.1657-1.0835-.4971-1.4149-.3059-.3569-.7138-.5354-1.2237-.5354-.5354 0-1.0835.1785-1.6444.5354s-1.109.8286-1.6444 1.4149c-.5354.5609-1.0452 1.2237-1.5296 1.9886-.4844.7393-.9051 1.5169-1.262 2.3327-.3569.7903-.6373 1.5806-.8413 2.3709-.2039.7649-.3059 1.4787-.3059 2.1416z"/><path d="m43.6948 20.8444c-.8159 1.3002-1.6189 2.5622-2.4092 3.7859-.7904 1.2237-1.4915 2.371-2.1033 3.4417-.6119 1.0453-1.109 1.9758-1.4914 2.7916-.3569.8158-.5354 1.4659-.5354 1.9503 0 .3569.0637.6629.1912.9178.1275.2295.3569.3442.6884.3442.5098 0 1.058-.1785 1.6443-.5354.6119-.3824 1.2365-.854 1.8738-1.4149.6374-.5864 1.2748-1.2365 1.9121-1.9503.6374-.7393 1.2365-1.4532 1.7973-2.1415.5609-.7139 1.0581-1.3767 1.4915-1.9886.4588-.6373.8285-1.1472 1.1089-1.5296l.306.1147c-.6119.8668-1.3767 1.9248-2.2945 3.174-.9178 1.2237-1.9503 2.422-3.0975 3.5947-1.1728 1.1982-2.2563 2.116-3.2505 2.7534-.9943.6118-2.1033.9178-3.327.9178-1.0453 0-1.8356-.2932-2.371-.8796-.5354-.6118-.803-1.4532-.803-2.5239 0-1.1472.4843-2.5749 1.4531-4.283.9943-1.7336 2.2435-3.8624 3.7477-6.3863zm-1.9503-5.9656c0-.7393.2549-1.3639.7648-1.8738.5354-.5354 1.1727-.8031 1.912-.8031.7394 0 1.364.2677 1.8739.8031.5353.5099.803 1.1345.803 1.8738s-.2677 1.3767-.803 1.9121c-.5099.5098-1.1345.7648-1.8739.7648-.7393 0-1.3766-.255-1.912-.7648-.5099-.5354-.7648-1.1728-.7648-1.9121z"/><path d="m38.1072 11.0918c0-.9688-.2422-1.78458-.7266-2.44743-.4588-.68834-1.2109-1.03251-2.2562-1.03251-.9688 0-1.7591.36967-2.3709 1.10899-.6119.71384-1.0963 1.69535-1.4532 2.94455s-.6119 2.7152-.7648 4.3978c-.1275 1.6571-.1912 3.4417-.1912 5.3537 0 2.167-.306 4.1046-.9178 5.8127-.5864 1.7081-1.4659 3.1613-2.6387 4.3595-1.1472 1.1727-2.5749 2.0778-4.283 2.7151-1.6826.6119-3.6202.9178-5.8127.9178-1.1982 0-2.3454-.1529-3.4417-.4589-1.0962-.3059-2.065-.752-2.9063-1.3384-.84131-.5864-1.5169-1.313-2.02679-2.1798-.50988-.8668-.76482-1.8738-.76482-3.021 0-.4844.05099-.9815.15297-1.4914.12747-.5099.31867-.9688.57361-1.3767.25494-.4334.58637-.7776.99428-1.0325.4079-.2805.89225-.4207 1.45315-.4207.7138 0 1.3002.2295 1.7591.6884.4844.4334.7266.9942.7266 1.6826 0 .6883-.1912 1.2747-.5736 1.7591-.3824.4589-.9306.7138-1.6444.7648-.0765.2804-.1275.5226-.153.7266v.6501c0 .4844.1148 1.007.3442 1.5679.2549.5354.6119 1.0325 1.0708 1.4914.4843.4589 1.0835.8413 1.7973 1.1472.7138.2805 1.5424.4079 2.4857.3824 1.3257-.0255 2.4602-.2549 3.4034-.6883.9433-.4334 1.7336-1.007 2.371-1.7209.6628-.7393 1.1855-1.5806 1.5679-2.5239.4079-.9688.7138-1.9758.9178-3.021.2294-1.0708.3824-2.1543.4589-3.2505.0765-1.1218.1147-2.1925.1147-3.2123 0-1.8101.204-3.5182.6119-5.1243.4334-1.6317 1.0962-3.0466 1.9885-4.2448.9178-1.22373 2.0778-2.19251 3.48-2.90634 1.4276-.71384 3.1485-1.07076 5.1625-1.07076.6884 0 1.3767.07648 2.065.22945.7139.15296 1.3512.4079 1.9121.76482.5864.33143 1.058.77758 1.4149 1.33845.357.53537.5354 1.19818.5354 1.98858 0 .8158-.2167 1.4786-.6501 1.9885-.4079.4844-.9305.8668-1.5679 1.1472-.6373.255-1.3257.4334-2.065.5354-.7393.0765-1.4277.1147-2.065.1147.6118-.5353 1.0835-1.1344 1.4149-1.7973.3314-.6628.4971-1.4022.4971-2.218z"/></g><path d="m61.4166 34.6098 7.916-13.5374 5.4302-.2295c-1.8356 2.5494-3.5947 5.1498-5.2773 7.8012l.0765.0765c.6629-.8413 1.4022-1.7463 2.218-2.7151s1.6699-1.8611 2.5622-2.6769c.9177-.8413 1.8483-1.5424 2.7916-2.1033.9687-.5608 1.9248-.8413 2.8681-.8413.9687 0 1.7718.255 2.4092.7649.6628.4843.9942 1.2364.9942 2.2562 0 .8413-.2677 1.7081-.803 2.6004-.5099.8923-1.0835 1.7718-1.7209 2.6386-.6373.8413-1.2237 1.6572-1.7591 2.4475-.5099.7648-.7648 1.4404-.7648 2.0268 0 .2549.0637.4844.1912.6883.153.1785.3824.2677.6883.2677.5609 0 1.1983-.2549 1.9121-.7648.7138-.5354 1.4532-1.1855 2.218-1.9503.5864-.5864 1.1727-1.211 1.7591-1.8739.5863-.6883 1.1345-1.3384 1.6444-1.9503.5098-.6373.9687-1.2109 1.3766-1.7208.4079-.5354.7266-.956.9561-1.262l.3441.1912c-.8668 1.1473-1.7973 2.3327-2.7916 3.5565-.9687 1.2237-1.9503 2.3454-2.9445 3.3652-1.0453 1.0708-2.0651 1.9121-3.0593 2.5239-.9688.5864-1.9631.8796-2.9829.8796-1.1472 0-2.014-.3315-2.6004-.9943-.5608-.6883-.8413-1.5679-.8413-2.6387 0-.9177.2422-1.7845.7266-2.6004.5099-.8413 1.0708-1.6188 1.6826-2.3327.6119-.7393 1.16-1.4149 1.6444-2.0268.5099-.6118.7648-1.1854.7648-1.7208 0-.7138-.3441-1.0708-1.0325-1.0708-.4589 0-1.0197.2422-1.6826.7266-.6628.4589-1.3767 1.0708-2.1415 1.8356s-1.5424 1.6189-2.3327 2.5622c-.7903.9432-1.5424 1.8865-2.2563 2.8298-.6883.9433-1.3002 1.8356-1.8355 2.6769-.5099.8413-.8923 1.5296-1.1473 2.065z"/><path d="m43.2859 31.0533c0-1.3257.3314-2.6259.9943-3.9006.6883-1.2747 1.5679-2.4092 2.6386-3.4034 1.0963-1.0198 2.32-1.8356 3.6712-2.4475 1.3512-.6118 2.7151-.9178 4.0918-.9178.8158 0 1.5297.153 2.1415.4589.6374.2805 1.1727.8796 1.6061 1.7974l.9178-1.7974 5.3156-.2294c-1.3257 2.269-2.6514 4.4997-3.9771 6.6922-1.3002 2.167-2.6004 4.3595-3.9006 6.5775 1.1727-.4079 2.2944-.9433 3.3652-1.6061 1.0962-.6884 2.1288-1.4405 3.0975-2.2563.9688-.8413 1.8866-1.7336 2.7534-2.6769.8923-.9432 1.7209-1.8865 2.4857-2.8298l.2677.2677c-.7649.9688-1.6189 1.9503-2.5622 2.9445-.9433.9943-1.9375 1.9249-2.9828 2.7917s-2.1415 1.6443-3.2888 2.3327c-1.1217.6883-2.2817 1.2109-3.4799 1.5679-.9688 1.963-2.116 3.7221-3.4417 5.2772-1.3257 1.5552-2.7661 2.8681-4.3213 3.9389-1.5296 1.0962-3.1357 1.9248-4.8184 2.4857-1.6826.5863-3.3779.8795-5.086.8795-1.0453 0-2.0778-.102-3.0976-.3059-1.0197-.204-1.9248-.5354-2.7151-.9943-.8158-.4334-1.4659-1.007-1.9503-1.7208-.5099-.6884-.7648-1.5424-.7648-2.5622 0-.6628.1402-1.2875.4206-1.8738.255-.5609.6629-1.058 1.2237-1.4914.5609-.4334 1.2875-.7776 2.1798-1.0325.8923-.2295 1.963-.3442 3.2123-.3442h2.4474v.4589h-.8413c-1.2237 0-2.2053.3569-2.9446 1.0707-.7393.7139-1.109 1.8229-1.109 3.327 0 .6884.102 1.3385.3059 1.9503.204.6119.5099 1.1345.9178 1.5679.3824.4589.8541.8158 1.415 1.0708.5353.2804 1.1472.4206 1.8355.4206 1.5552 0 3.0466-.5736 4.4743-1.7208 1.4021-1.1473 2.7278-2.6387 3.977-4.4743l5.8509-8.5277-.0764-.0765c-.8923 1.0452-1.9248 1.861-3.0976 2.4474-1.1472.5864-2.3327.8796-3.5564.8796-1.1472 0-2.0395-.3697-2.6769-1.109-.6118-.7649-.9178-1.7336-.9178-2.9064zm4.9714.5737c0 .4843.0765.9305.2294 1.3384.1785.3824.5609.5736 1.1473.5736.5353 0 1.0962-.1784 1.6826-.5354.5863-.3824 1.16-.8668 1.7208-1.4531.5609-.6119 1.0963-1.3002 1.6062-2.0651.5098-.7648.9432-1.5424 1.3002-2.3327.3824-.8158.6883-1.5934.9178-2.3327.2294-.7648.3441-1.4404.3441-2.0268 0-.6118-.1657-1.0835-.4971-1.4149-.3059-.3569-.7138-.5354-1.2237-.5354-.5354 0-1.0835.1785-1.6444.5354s-1.109.8286-1.6444 1.4149c-.5354.5609-1.0452 1.2237-1.5296 1.9886-.4844.7393-.9051 1.5169-1.262 2.3327-.3569.7903-.6373 1.5806-.8413 2.3709-.2039.7649-.3059 1.4787-.3059 2.1416z"/><path d="m43.6948 20.8444c-.8159 1.3002-1.6189 2.5622-2.4092 3.7859-.7904 1.2237-1.4915 2.371-2.1033 3.4417-.6119 1.0453-1.109 1.9758-1.4914 2.7916-.3569.8158-.5354 1.4659-.5354 1.9503 0 .3569.0637.6629.1912.9178.1275.2295.3569.3442.6884.3442.5098 0 1.058-.1785 1.6443-.5354.6119-.3824 1.2365-.854 1.8738-1.4149.6374-.5864 1.2748-1.2365 1.9121-1.9503.6374-.7393 1.2365-1.4532 1.7973-2.1415.5609-.7139 1.0581-1.3767 1.4915-1.9886.4588-.6373.8285-1.1472 1.1089-1.5296l.306.1147c-.6119.8668-1.3767 1.9248-2.2945 3.174-.9178 1.2237-1.9503 2.422-3.0975 3.5947-1.1728 1.1982-2.2563 2.116-3.2505 2.7534-.9943.6118-2.1033.9178-3.327.9178-1.0453 0-1.8356-.2932-2.371-.8796-.5354-.6118-.803-1.4532-.803-2.5239 0-1.1472.4843-2.5749 1.4531-4.283.9943-1.7336 2.2435-3.8624 3.7477-6.3863zm-1.9503-5.9656c0-.7393.2549-1.3639.7648-1.8738.5354-.5354 1.1727-.8031 1.912-.8031.7394 0 1.364.2677 1.8739.8031.5353.5099.803 1.1345.803 1.8738s-.2677 1.3767-.803 1.9121c-.5099.5098-1.1345.7648-1.8739.7648-.7393 0-1.3766-.255-1.912-.7648-.5099-.5354-.7648-1.1728-.7648-1.9121z"/><path d="m38.1072 11.0918c0-.9688-.2422-1.78458-.7266-2.44743-.4588-.68834-1.2109-1.03251-2.2562-1.03251-.9688 0-1.7591.36967-2.3709 1.10899-.6119.71384-1.0963 1.69535-1.4532 2.94455s-.6119 2.7152-.7648 4.3978c-.1275 1.6571-.1912 3.4417-.1912 5.3537 0 2.167-.306 4.1046-.9178 5.8127-.5864 1.7081-1.4659 3.1613-2.6387 4.3595-1.1472 1.1727-2.5749 2.0778-4.283 2.7151-1.6826.6119-3.6202.9178-5.8127.9178-1.1982 0-2.3454-.1529-3.4417-.4589-1.0962-.3059-2.065-.752-2.9063-1.3384-.84131-.5864-1.5169-1.313-2.02679-2.1798-.50988-.8668-.76482-1.8738-.76482-3.021 0-.4844.05099-.9815.15297-1.4914.12747-.5099.31867-.9688.57361-1.3767.25494-.4334.58637-.7776.99428-1.0325.4079-.2805.89225-.4207 1.45315-.4207.7138 0 1.3002.2295 1.7591.6884.4844.4334.7266.9942.7266 1.6826 0 .6883-.1912 1.2747-.5736 1.7591-.3824.4589-.9306.7138-1.6444.7648-.0765.2804-.1275.5226-.153.7266v.6501c0 .4844.1148 1.007.3442 1.5679.2549.5354.6119 1.0325 1.0708 1.4914.4843.4589 1.0835.8413 1.7973 1.1472.7138.2805 1.5424.4079 2.4857.3824 1.3257-.0255 2.4602-.2549 3.4034-.6883.9433-.4334 1.7336-1.007 2.371-1.7209.6628-.7393 1.1855-1.5806 1.5679-2.5239.4079-.9688.7138-1.9758.9178-3.021.2294-1.0708.3824-2.1543.4589-3.2505.0765-1.1218.1147-2.1925.1147-3.2123 0-1.8101.204-3.5182.6119-5.1243.4334-1.6317 1.0962-3.0466 1.9885-4.2448.9178-1.22373 2.0778-2.19251 3.48-2.90634 1.4276-.71384 3.1485-1.07076 5.1625-1.07076.6884 0 1.3767.07648 2.065.22945.7139.15296 1.3512.4079 1.9121.76482.5864.33143 1.058.77758 1.4149 1.33845.357.53537.5354 1.19818.5354 1.98858 0 .8158-.2167 1.4786-.6501 1.9885-.4079.4844-.9305.8668-1.5679 1.1472-.6373.255-1.3257.4334-2.065.5354-.7393.0765-1.4277.1147-2.065.1147.6118-.5353 1.0835-1.1344 1.4149-1.7973.3314-.6628.4971-1.4022.4971-2.218z"/></g></svg>